<svg width="50" height="50" viewBox="0 0 50 50" fill="none" xmlns="http://www.w3.org/2000/svg">
<circle cx="25" cy="25" r="25" transform="rotate(-180 25 25)" fill="#D5FFC4"/>
<mask id="mask0" mask-type="alpha" maskUnits="userSpaceOnUse" x="0" y="0" width="50" height="50">
<circle cx="25" cy="25" r="25" transform="rotate(-180 25 25)" fill="#EBFFD7"/>
</mask>
<g mask="url(#mask0)">
<path d="M27.7202 17.1821C26.8384 15.1386 24.4786 14.1919 22.4495 15.0675C22.353 15.1091 22.2598 15.1552 22.1683 15.2034C22.1666 15.1993 22.1651 15.1951 22.1633 15.191C21.3502 13.3066 19.1741 12.4336 17.303 13.241C16.7159 13.4944 16.2287 13.8832 15.8615 14.3556C14.3714 12.6044 11.8713 11.9435 9.66378 12.8961C7.4563 13.8487 6.22202 16.1211 6.47391 18.4067C5.87823 18.3498 5.26112 18.4375 4.67398 18.6909C2.80285 19.4983 1.94528 21.6805 2.75844 23.5648C2.76021 23.5689 2.76225 23.5728 2.76405 23.577C2.66627 23.6104 2.56885 23.6466 2.47231 23.6883C0.443209 24.5639 -0.486875 26.9303 0.394989 28.9739C1.07031 30.5388 2.61252 31.4594 4.20909 31.412C4.26601 31.7932 4.37199 32.1736 4.53205 32.5445C5.52036 34.8347 8.16515 35.8958 10.4392 34.9145C11.6436 34.3947 12.5022 33.4064 12.8969 32.2515C14.3937 33.4307 16.4645 33.7756 18.3271 32.9718C20.1897 32.168 21.3594 30.4247 21.5282 28.5268C22.6394 29.0319 23.9475 29.0852 25.1518 28.5655C27.4259 27.5841 28.4683 24.932 27.48 22.6417C27.3199 22.2708 27.1159 21.9328 26.8775 21.6298C28.0073 20.5007 28.3956 18.7471 27.7202 17.1821Z" fill="#76A563"/>
<path d="M27.7386 17.2267C27.4116 16.4691 26.8793 15.8635 26.2355 15.4469C26.4474 15.7117 26.6286 16.0082 26.7695 16.3348C27.3809 17.7515 27.0803 19.331 26.1291 20.4171C26.0288 20.5316 26.0254 20.7003 26.1123 20.8256C26.2729 21.0577 26.4134 21.3088 26.5296 21.578C27.478 23.7759 26.4698 26.3245 24.2776 27.2705C23.2508 27.7136 22.1464 27.7263 21.1648 27.3889C20.9719 27.3226 20.7679 27.4476 20.7333 27.6489C20.4472 29.3098 19.3565 30.7964 17.6966 31.5127C16.0366 32.229 14.2067 32.0028 12.802 31.0715C12.6318 30.9586 12.4009 31.0212 12.3168 31.2071C11.889 32.1528 11.1221 32.9475 10.0952 33.3907C7.90308 34.3366 5.35706 33.3218 4.40862 31.1239C4.29246 30.8548 4.20608 30.5803 4.14747 30.3042C4.11577 30.155 3.99077 30.0418 3.83867 30.0361C2.39585 29.9831 1.0405 29.1182 0.429114 27.7014C0.288184 27.3749 0.196723 27.0396 0.149448 26.7038C0.0109505 27.4582 0.08634 28.2608 0.413287 29.0184C1.08559 30.5763 2.62523 31.4909 4.22076 31.4411C4.29138 31.9175 4.43908 32.3924 4.67398 32.8489C5.69609 34.8353 8.05528 35.7771 10.1553 35.0323C11.5095 34.552 12.4742 33.5034 12.9011 32.2632C14.3949 33.4355 16.4638 33.7758 18.3264 32.972C20.1889 32.1682 21.3607 30.4296 21.5325 28.5385C22.7276 29.0786 24.1521 29.0961 25.4303 28.4406C27.4131 27.4238 28.3467 25.0612 27.6027 22.9545C27.4317 22.4704 27.1875 22.037 26.8893 21.6587C28.0201 20.5323 28.4109 18.7847 27.7386 17.2267Z" fill="#62954E"/>
<path d="M21.6151 28.4657C21.5006 29.6989 20.9583 30.8677 20.0753 31.7539C19.9299 32.9272 19.8034 34.2891 19.8176 35.3996C19.8214 35.6934 19.467 35.8463 19.2558 35.642C18.4577 34.8699 17.3799 34.0276 16.4265 33.3285C15.176 33.363 13.9536 32.9557 12.9778 32.193C12.7437 32.868 12.3484 33.4854 11.8184 33.9862C13.9689 35.8282 16.849 38.8353 19.4896 43.3583C19.8196 43.9236 20.5221 44.152 21.1243 43.8921L24.5384 42.4188C25.1406 42.1589 25.4563 41.4912 25.2714 40.8633C23.7921 35.8392 23.5801 31.6806 23.7151 28.8523C22.9872 28.8945 22.2668 28.7584 21.6151 28.4657Z" fill="#98DB7C"/>
<path d="M21.6072 28.469C21.4834 29.6875 20.9314 30.8457 20.0405 31.7273C19.9593 32.3366 19.8834 32.997 19.8301 33.6459L23.6624 30.2688C23.6664 29.7589 23.6826 29.2802 23.7076 28.835C22.9783 28.8821 22.2578 28.7532 21.6072 28.469Z" fill="#82D361"/>
<path d="M16.3246 33.3035C15.0988 33.3406 13.9018 32.947 12.9474 32.2061C12.7161 32.8648 12.3269 33.4679 11.8061 33.9575C12.0797 34.1904 12.3655 34.443 12.6611 34.715L18.0515 34.634C17.4891 34.1702 16.8852 33.7117 16.3246 33.3035Z" fill="#82D361"/>
<path d="M17.7751 19.3184C18.0122 20.447 17.4253 21.6273 16.3169 22.1057C15.6629 22.3879 14.9556 22.3702 14.3503 22.1137C14.1434 22.0261 13.9114 22.1569 13.8831 22.3794C13.761 23.3383 13.1458 24.2122 12.1883 24.6254C10.909 25.1775 9.45086 24.7203 8.71203 23.6079C8.74571 23.8305 8.82599 23.9305 8.82599 23.9305C8.85808 24.0406 8.89644 24.15 8.94303 24.258C9.5581 25.6833 11.2217 26.336 12.6588 25.7158C13.7852 25.2297 14.4379 24.1059 14.3714 22.9563C15.0541 23.431 15.963 23.5518 16.7874 23.1961C18.0513 22.6507 18.6373 21.1924 18.0964 19.9389C18.0965 19.939 18.0043 19.637 17.7751 19.3184Z" fill="#62954E"/>
<path d="M48.2224 26.5003C48.8532 24.4802 47.7385 22.3348 45.7327 21.7085C45.6373 21.6787 45.5416 21.6541 45.4458 21.6322C45.447 21.6281 45.4486 21.6242 45.4498 21.6201C46.0315 19.7574 45.0037 17.7791 43.154 17.2015C42.5736 17.0202 41.9813 16.9986 41.4237 17.1116C41.4348 14.9252 40.0417 12.899 37.8595 12.2176C35.6774 11.5361 33.3789 12.4096 32.1438 14.2137C31.7495 13.8034 31.2502 13.4842 30.6698 13.3029C28.8201 12.7253 26.8491 13.7672 26.2675 15.6299C26.2662 15.634 26.2652 15.6381 26.264 15.6422C26.1727 15.6057 26.08 15.5714 25.9846 15.5416C23.9788 14.9152 21.8413 16.045 21.2105 18.0652C20.7274 19.6121 21.2688 21.2318 22.4494 22.1873C22.2541 22.4974 22.0948 22.8374 21.9803 23.2041C21.2733 25.4681 22.5226 27.8725 24.7706 28.5745C25.9611 28.9463 27.1929 28.7659 28.1934 28.1778C28.5417 29.9558 29.8211 31.4881 31.6623 32.0631C33.5035 32.638 35.4275 32.1061 36.7257 30.8422C37.2138 31.8952 38.124 32.7444 39.3145 33.1162C41.5625 33.8182 43.9581 32.552 44.6651 30.288C44.7796 29.9213 44.842 29.5511 44.8579 29.1849C46.3724 29.0711 47.7393 28.0473 48.2224 26.5003Z" fill="#6EA856"/>
<path d="M48.2086 26.5442C48.4425 25.7952 48.434 25.0287 48.2281 24.3292C48.2168 24.6514 48.1636 24.9775 48.0628 25.3004C47.6254 26.7009 46.4296 27.6534 45.0706 27.847C44.9272 27.8674 44.8203 27.9869 44.8052 28.1311C44.7772 28.398 44.7228 28.6662 44.6397 28.9323C43.9612 31.105 41.6545 32.3176 39.4875 31.6409C38.4724 31.324 37.6682 30.6485 37.1696 29.7969C37.0716 29.6294 36.847 29.5932 36.6973 29.7168C35.4615 30.7371 33.7536 31.1329 32.1127 30.6205C30.4718 30.1081 29.2926 28.8107 28.857 27.2685C28.8042 27.0816 28.599 26.9836 28.4231 27.0655C27.5284 27.4822 26.4828 27.5799 25.4677 27.2629C23.3007 26.5862 22.094 24.2763 22.7724 22.1037C22.8555 21.8375 22.9634 21.5861 23.0923 21.3507C23.1619 21.2234 23.1419 21.0644 23.0357 20.966C22.0283 20.0334 21.5871 18.5697 22.0244 17.1692C22.1253 16.8463 22.2671 16.5479 22.4412 16.2765C21.8737 16.7345 21.4306 17.36 21.1967 18.1089C20.7158 19.649 21.259 21.2628 22.4404 22.2159C22.196 22.6031 22.0081 23.0372 21.8946 23.5119C21.4003 25.5777 22.5176 27.7192 24.4935 28.4838C25.7676 28.9769 27.1131 28.8188 28.1898 28.1892C28.5402 29.9604 29.821 31.4881 31.6622 32.0631C33.5035 32.6381 35.426 32.1107 36.7221 30.8536C37.2491 31.9839 38.2654 32.8795 39.5933 33.1992C41.6533 33.6951 43.7909 32.5701 44.5603 30.59C44.7371 30.1349 44.8296 29.6711 44.849 29.2134C46.3626 29.1021 47.7277 28.0843 48.2086 26.5442Z" fill="#62954E"/>
<path d="M36.826 30.8522C35.9791 31.6705 34.8636 32.1771 33.6776 32.2688C32.8455 33.0246 31.9101 33.9282 31.232 34.7378C31.0526 34.9519 30.7023 34.8425 30.6766 34.5643C30.5797 33.5128 30.3247 32.2374 30.0706 31.1424C29.1476 30.3922 28.5186 29.3408 28.2878 28.1859C27.7006 28.5276 27.0328 28.7277 26.3403 28.7603C26.7491 31.4214 26.9618 35.375 26.0623 40.273C25.9498 40.8852 26.3148 41.4853 26.91 41.6712L30.2851 42.7251C30.8803 42.911 31.5219 42.6252 31.7778 42.0579C33.8253 37.5183 36.2501 34.3884 38.1006 32.4327C37.5497 32.0119 37.1145 31.4673 36.826 30.8522Z" fill="#98DB7C"/>
<path d="M36.8184 30.85C35.9738 31.6518 34.858 32.1448 33.669 32.2282C33.2328 32.6172 32.7687 33.0464 32.3281 33.4812L37.1847 33.4216C37.5036 33.0565 37.812 32.7213 38.106 32.4158C37.551 31.9977 37.1113 31.4581 36.8184 30.85Z" fill="#82D361"/>
<path d="M30.0126 31.0612C29.1057 30.3282 28.4867 29.3024 28.2578 28.1766C27.6826 28.5082 27.0282 28.7018 26.3491 28.732C26.4021 29.0695 26.4516 29.4288 26.4961 29.8081L30.4331 33.091C30.3151 32.4079 30.1638 31.703 30.0126 31.0612Z" fill="#82D361"/>
<path d="M39.7273 21.8768C39.1987 22.8375 38.044 23.3248 36.9483 22.9827C36.3017 22.7808 35.8027 22.3296 35.5252 21.7695C35.4304 21.578 35.182 21.5285 35.0237 21.6714C34.3413 22.2871 33.356 22.536 32.4095 22.2404C31.1448 21.8455 30.3769 20.612 30.5336 19.3519C30.4199 19.5333 30.4158 19.6552 30.4158 19.6552C30.3707 19.7545 30.3305 19.8572 30.2972 19.9639C29.8572 21.3729 30.6522 22.8746 32.0728 23.3183C33.1864 23.666 34.3535 23.2602 35.0181 22.3901C35.2162 23.1555 35.7967 23.806 36.6116 24.0605C37.861 24.4507 39.1875 23.7625 39.5744 22.5234C39.5745 22.5234 39.6951 22.2486 39.7273 21.8768Z" fill="#62954E"/>
<path d="M22.0003 40.7385C22.0003 45.3768 17.9709 49.1369 13.0003 49.1369C8.02975 49.1369 4.00031 45.3768 4.00031 40.7385C4.00031 38.5105 4.93 36.4853 6.44697 34.9821C7.38383 34.0537 8.7102 33.6292 10.0107 33.8446C10.9168 33.9948 11.9305 34.0787 13.0003 34.0787C14.0701 34.0787 15.0838 33.9948 15.9899 33.8446C17.2904 33.6292 18.6168 34.0537 19.5536 34.9821C21.0708 36.4853 22.0003 38.5105 22.0003 40.7385Z" fill="#F16565"/>
<path d="M13.8888 49.095C13.5911 49.1226 13.2891 49.1369 12.9838 49.1369C8.02253 49.1369 4.00031 45.3892 4.00031 40.766C4.00031 38.5455 4.9283 36.527 6.44264 35.0289C7.37749 34.1035 8.70173 33.6804 9.99969 33.8949C10.0863 33.9092 10.1742 33.9229 10.2626 33.936C9.51219 34.1004 8.81255 34.4743 8.25234 35.0289C6.738 36.527 5.81001 38.5455 5.81001 40.766C5.81001 45.1046 9.35203 48.6722 13.8888 49.095Z" fill="#F87171"/>
<path d="M7.52613 37.4805C7.4686 37.4805 7.41049 37.4633 7.35998 37.4277C7.2296 37.3357 7.1985 37.1555 7.29048 37.0252C8.3398 35.5378 9.82421 35.0638 10.6157 34.9135C10.7723 34.8839 10.9235 34.9868 10.9532 35.1435C10.9829 35.3001 10.88 35.4513 10.7233 35.481C10.0177 35.6149 8.69459 36.0369 7.76236 37.3582C7.70615 37.4379 7.6168 37.4805 7.52613 37.4805Z" fill="#F87171"/>
<path d="M18.0571 37.5164C17.9664 37.5164 17.8772 37.4737 17.821 37.394C16.4791 35.492 14.3312 35.4503 14.3098 35.4501C14.1503 35.4487 14.0222 35.3182 14.0238 35.1587C14.0251 35.0002 14.1541 34.8726 14.3124 34.8726H14.3152C14.4152 34.8736 16.7822 34.9199 18.2929 37.061C18.3849 37.1914 18.3538 37.3715 18.2234 37.4635C18.1729 37.4991 18.1147 37.5164 18.0571 37.5164Z" fill="#F74F43"/>
<path d="M14.1065 37.3931C13.9596 37.3931 13.8339 37.2814 13.8194 37.1322C13.7588 36.5092 13.5467 36.0811 13.3792 35.8318C13.211 35.5812 13.0577 35.4625 13.0563 35.4614C12.9279 35.3669 12.9005 35.186 12.9951 35.0577C13.0897 34.9293 13.2706 34.9019 13.3989 34.9965C13.4338 35.0222 14.2549 35.6427 14.3942 37.0763C14.4096 37.2351 14.2935 37.3763 14.1346 37.3917C14.1251 37.3925 14.1158 37.3931 14.1065 37.3931Z" fill="#F87171"/>
<path d="M17.1425 35.2289C17.1425 34.7056 15.2807 34.2815 12.9839 34.2815C10.6873 34.2815 8.8255 34.7056 8.8255 35.2289C8.8255 35.7522 10.6873 36.1763 12.9839 36.1763C15.2807 36.1763 17.1425 35.7522 17.1425 35.2289Z" fill="#F87171"/>
<path d="M10.0535 34.7961C11.0815 35.475 14.9202 35.475 15.9482 34.7961C17.2628 33.9277 18.0769 32.8171 17.7664 32.3155C17.4559 31.8141 16.1383 32.1114 14.8235 32.9798C14.7223 33.0467 14.6239 33.1152 14.5288 33.1845C14.3246 33.3338 14.0443 33.1838 14.0445 32.9254C14.0445 32.923 14.0445 32.9208 14.0445 32.9184C14.0445 31.3066 13.5772 30 13.0008 30C12.4244 30 11.9571 31.3066 11.9571 32.9183V32.9254C11.9574 33.1838 11.6772 33.3337 11.4728 33.1845C11.3778 33.115 11.2795 33.0467 11.1781 32.9798C9.86332 32.1114 8.54585 31.8141 8.23535 32.3155C7.9247 32.8171 8.73875 33.9276 10.0535 34.7961Z" fill="#93C275"/>
<path d="M15.9482 34.8013C14.9201 35.4736 11.0817 35.4736 10.0536 34.8013C8.73886 33.9415 7.92478 32.8423 8.2353 32.3458C8.25193 32.3195 8.2713 32.2952 8.29324 32.2739C8.55155 32.8045 9.19609 33.4671 10.0536 34.0279C11.0817 34.7 14.9201 34.7 15.9482 34.0279C16.8056 33.4671 17.4501 32.8045 17.7086 32.2739C17.7304 32.2952 17.7497 32.3195 17.7664 32.3458C18.0769 32.8423 17.2629 33.9415 15.9482 34.8013Z" fill="#6AB15C"/>
<path d="M19.0286 40.4209C18.8582 40.4209 18.7171 40.2993 18.7108 40.1448C18.6797 39.3779 18.4393 38.9512 18.4371 38.9472C18.3545 38.8074 18.4134 38.634 18.5685 38.5597C18.7238 38.4854 18.9164 38.5384 18.999 38.6781C19.0117 38.6996 19.3102 39.2142 19.3469 40.1239C19.3533 40.2821 19.216 40.4149 19.0403 40.4207C19.0365 40.4209 19.0324 40.4209 19.0286 40.4209Z" fill="#F74F43"/>
<path d="M28.1686 44.8559C28.1686 48.2491 25.2208 50.9999 21.5844 50.9999C17.9481 50.9999 15.0003 48.2491 15.0003 44.8559C15.0003 43.2259 15.6804 41.7444 16.7902 40.6446C17.4756 39.9654 18.4459 39.6549 19.3973 39.8125C20.0602 39.9224 20.8018 39.9838 21.5844 39.9838C22.3671 39.9838 23.1087 39.9224 23.7716 39.8125C24.723 39.6549 25.6933 39.9654 26.3787 40.6446C27.4886 41.7444 28.1686 43.2259 28.1686 44.8559Z" fill="#F16565"/>
<path d="M22.2344 50.9694C22.0166 50.9896 21.7957 51.0001 21.5724 51.0001C17.9428 51.0001 15.0003 48.2583 15.0003 44.8761C15.0003 43.2517 15.6792 41.775 16.787 40.679C17.471 40.002 18.4397 39.6925 19.3893 39.8494C19.4526 39.8599 19.5169 39.8699 19.5817 39.8795C19.0326 39.9998 18.5208 40.2733 18.111 40.679C17.0031 41.775 16.3242 43.2517 16.3242 44.8761C16.3242 48.0502 18.9155 50.6601 22.2344 50.9694Z" fill="#F87171"/>
<path d="M17.5797 42.4725C17.5376 42.4725 17.4951 42.4599 17.4582 42.4338C17.3628 42.3665 17.34 42.2347 17.4073 42.1394C18.175 41.0513 19.2609 40.7044 19.84 40.5945C19.9546 40.5729 20.0651 40.6482 20.0869 40.7628C20.1086 40.8774 20.0333 40.9879 19.9187 41.0097C19.4025 41.1077 18.4345 41.4163 17.7525 42.383C17.7114 42.4413 17.6461 42.4725 17.5797 42.4725Z" fill="#F87171"/>
<path d="M25.2839 42.4988C25.2175 42.4988 25.1523 42.4676 25.1111 42.4093C24.1294 41.0179 22.5581 40.9873 22.5424 40.9872C22.4258 40.9862 22.332 40.8907 22.3332 40.774C22.3342 40.6581 22.4286 40.5647 22.5444 40.5647H22.5464C22.6196 40.5654 24.3512 40.5993 25.4564 42.1657C25.5237 42.2611 25.5009 42.3929 25.4055 42.4602C25.3686 42.4862 25.3261 42.4988 25.2839 42.4988Z" fill="#F74F43"/>
<path d="M22.3937 42.4085C22.2862 42.4085 22.1942 42.3268 22.1837 42.2176C22.1393 41.7619 21.9841 41.4487 21.8616 41.2663C21.7386 41.083 21.6264 40.9961 21.6254 40.9953C21.5315 40.9262 21.5114 40.7938 21.5806 40.7C21.6498 40.6061 21.7822 40.586 21.8761 40.6552C21.9016 40.674 22.5023 41.1279 22.6042 42.1767C22.6154 42.2929 22.5305 42.3962 22.4143 42.4074C22.4073 42.4081 22.4005 42.4085 22.3937 42.4085Z" fill="#F87171"/>
<path d="M24.6148 40.8254C24.6148 40.4426 23.2527 40.1323 21.5725 40.1323C19.8923 40.1323 18.5303 40.4426 18.5303 40.8254C18.5303 41.2082 19.8923 41.5185 21.5725 41.5185C23.2527 41.5185 24.6148 41.2082 24.6148 40.8254Z" fill="#F87171"/>
<path d="M19.4286 40.5087C20.1807 41.0053 22.989 41.0053 23.741 40.5087C24.7028 39.8734 25.2983 39.0609 25.0711 38.694C24.844 38.3271 23.8801 38.5446 22.9182 39.1799C22.8442 39.2289 22.7722 39.279 22.7026 39.3297C22.5532 39.4389 22.3482 39.3291 22.3483 39.1401C22.3483 39.1384 22.3483 39.1368 22.3483 39.1351C22.3483 37.9558 22.0065 37 21.5848 37C21.1631 37 20.8213 37.9558 20.8213 39.1349V39.1401C20.8215 39.3291 20.6165 39.4388 20.4669 39.3297C20.3975 39.2789 20.3255 39.2289 20.2513 39.1799C19.2895 38.5446 18.3257 38.3271 18.0985 38.694C17.8713 39.0609 18.4668 39.8733 19.4286 40.5087Z" fill="#93C275"/>
<path d="M23.741 40.5125C22.9889 41.0043 20.1808 41.0043 19.4287 40.5125C18.4669 39.8835 17.8713 39.0794 18.0985 38.7161C18.1107 38.6969 18.1248 38.6791 18.1409 38.6636C18.3298 39.0517 18.8014 39.5365 19.4287 39.9467C20.1808 40.4384 22.9889 40.4384 23.741 39.9467C24.3682 39.5365 24.8398 39.0517 25.0289 38.6636C25.0448 38.6791 25.059 38.6969 25.0711 38.7161C25.2983 39.0794 24.7029 39.8835 23.741 40.5125Z" fill="#6AB15C"/>
<path d="M25.9945 44.6237C25.8699 44.6237 25.7666 44.5348 25.762 44.4217C25.7393 43.8607 25.5635 43.5485 25.5618 43.5456C25.5014 43.4433 25.5445 43.3165 25.658 43.2621C25.7716 43.2078 25.9125 43.2466 25.9729 43.3487C25.9822 43.3645 26.2006 43.741 26.2274 44.4065C26.2321 44.5222 26.1317 44.6193 26.0031 44.6236C26.0003 44.6237 25.9974 44.6237 25.9945 44.6237Z" fill="#F74F43"/>
<path d="M48.4171 39.4617C47.979 39.9006 47.178 40.5974 46.12 41.4596C45.8166 41.7067 45.491 41.9679 45.147 42.2399C44.0386 43.1194 42.7358 44.1155 41.3232 45.1562C40.9908 45.4 40.6528 45.6472 40.3089 45.8951C33.3465 50.9316 24.3308 56.5451 22.3924 54.6075C21.3253 53.5404 22.5486 50.3249 24.7061 46.4886C24.9111 46.1232 25.1252 45.7512 25.3467 45.376C26.0485 44.1848 26.8238 42.9499 27.6348 41.7141C27.8654 41.3628 28.0985 41.0115 28.3341 40.6602C30.5321 37.3869 32.9076 34.1887 34.7601 31.8528C35.032 31.5089 35.2932 31.1833 35.5404 30.8799C36.4025 29.8218 37.0993 29.0208 37.5383 28.5827C40.5422 25.5789 45.4133 25.5789 48.4172 28.5827C51.421 31.5867 51.421 36.4578 48.4171 39.4617Z" fill="#FFAA5C"/>
<path d="M48.4166 28.5832C48.2391 28.4057 48.0549 28.2391 47.8651 28.0825C50.3577 31.1043 50.191 35.5832 47.3645 38.4097C44.5379 41.2362 26.6507 54.8114 22.0444 53.9032C22.1014 54.1924 22.2148 54.4299 22.3923 54.6074C25.3963 57.6114 45.4125 42.4658 48.4165 39.4618C51.4206 36.4578 51.4206 31.5872 48.4166 28.5832Z" fill="#FF9838"/>
<path d="M62.0754 25.4358C63.3083 24.2028 63.3083 22.2039 62.0754 20.971C61.7878 20.6834 61.4582 20.4639 61.1067 20.3103C62.0275 19.0741 61.9271 17.3174 60.8048 16.1952C59.6826 15.0729 57.9259 14.9726 56.6897 15.8933C56.5363 15.5419 56.3167 15.2123 56.0292 14.9247C54.7962 13.6918 52.7972 13.6918 51.5644 14.9247C51.5427 14.9464 51.5222 14.9688 51.5013 14.991C50.2869 14.2551 48.6837 14.411 47.6348 15.46C46.4018 16.6929 46.4018 18.6919 47.6348 19.9248C47.7824 20.0724 47.9413 20.2019 48.1083 20.3142C47.6469 21.4539 47.8783 22.8086 48.8025 23.7329C48.9808 23.9112 49.1755 24.0629 49.3812 24.1896L46.7066 27.2946C47.3195 27.6347 47.8967 28.0627 48.4171 28.5831C48.9374 29.1034 49.3654 29.6806 49.7055 30.2936L52.8106 27.619C52.9374 27.8248 53.089 28.0194 53.2673 28.1978C54.1916 29.122 55.5461 29.3534 56.686 28.892C56.7982 29.0589 56.9277 29.2178 57.0754 29.3655C58.3083 30.5984 60.3073 30.5984 61.5403 29.3655C62.5892 28.3165 62.7451 26.7133 62.0092 25.4989C62.0312 25.4779 62.0537 25.4575 62.0754 25.4358Z" fill="#98DB7C"/>
<path d="M62.0095 25.4983C62.0316 25.4774 62.0541 25.457 62.0758 25.4353C63.3087 24.2024 63.3087 22.2034 62.0758 20.9705C61.8945 20.7892 61.6964 20.635 61.4868 20.5073C62.5409 22.5432 61.5708 23.8418 61.1397 24.2804C61.0344 24.3875 60.9946 24.5424 61.0374 24.6862C61.2311 25.3368 61.6206 27.1714 60.3501 28.4434C59.3043 29.4904 57.5728 29.5002 56.3822 28.6214C56.158 28.4559 55.9649 28.2683 55.8006 28.065C55.6978 27.9377 55.5262 27.8854 55.3697 27.933C54.2901 28.2615 53.0692 27.9989 52.2156 27.1453C52.1409 27.0707 52.0709 26.9931 52.0054 26.9131C51.8583 26.7333 51.5925 26.7098 51.4165 26.8614L48.8585 29.0648C49.1848 29.452 49.4674 29.8635 49.7058 30.2932L52.8109 27.6186C52.9376 27.8243 53.0893 28.019 53.2675 28.1973C54.1918 29.1216 55.5464 29.353 56.6862 28.8915C56.8817 29.1822 57.1293 29.4484 57.4341 29.6735C58.6247 30.5524 60.2962 30.4789 61.4021 29.4956C62.5747 28.4527 62.7767 26.7643 62.0095 25.4983Z" fill="#82D361"/>
<path d="M39.7894 36.0061C39.5495 36.2443 39.1519 36.2456 38.9124 36.0061L34.7587 31.8523C35.0306 31.5085 35.2918 31.1828 35.5389 30.8794L39.7893 35.129C40.0315 35.3712 40.0315 35.7638 39.7894 36.0061Z" fill="#E8834D"/>
<path d="M41.3235 45.1552C40.9912 45.399 40.6531 45.6462 40.3093 45.8942L33.3849 38.9698C33.1427 38.7275 33.1427 38.3349 33.3849 38.0927C33.6271 37.8506 34.0197 37.8506 34.2611 38.0927L41.3235 45.1552Z" fill="#E8834D"/>
<path d="M33.9688 47.1732C33.7306 47.4114 33.3309 47.4114 33.0926 47.1732L27.6337 41.7143C27.8644 41.363 28.0975 41.0117 28.333 40.6604L33.9688 46.2962C34.211 46.5383 34.211 46.931 33.9688 47.1732Z" fill="#E8834D"/>
<path d="M27.4461 48.3517C27.2073 48.5905 26.8083 48.5893 26.5691 48.3517L24.7067 46.4886C24.9117 46.1232 25.1259 45.7512 25.3473 45.376L27.4461 47.4747C27.6883 47.7169 27.6883 48.1095 27.4461 48.3517Z" fill="#E8834D"/>
<path d="M45.1496 42.2396L42.4358 39.5258C42.1937 39.2836 42.1937 38.8909 42.4358 38.6488C42.678 38.4074 43.0707 38.4074 43.3128 38.6488L46.1224 41.4592L45.1496 42.2396Z" fill="#E8834D"/>
<path d="M41.3227 45.156C40.9904 45.3998 40.6523 45.647 40.3084 45.8949L39.2562 44.8426C39.5993 44.5946 39.9374 44.3483 40.2696 44.1028L41.3227 45.156Z" fill="#D66E41"/>
<path d="M44.0948 41.1883L45.1471 42.2406L46.0456 41.5206L46.12 41.4603L45.0677 40.4072L44.0948 41.1883Z" fill="#D66E41"/>
</g>
</svg>
